<svg xmlns="http://www.w3.org/2000/svg" height="800" width="1200" viewBox="-12.33399 -22.0162 106.89458 132.0972"><defs><clipPath clipPathUnits="userSpaceOnUse" id="a"><path d="M0 0h594v774H0z"/></clipPath></defs><g clip-path="url(#a)" transform="matrix(1.25 0 0 -1.25 -610.2927 153.1414)"><path d="M508.9979 103.6631c1.165 0 8.73-3.339 8.73-15.333 0-5.732-1.929-10.51-3.068-10.51-.502 0-.693.502-.693 1.466 0 2.122.748 4.002.748 8.532 0 8.746-3.602 12.275-5.215 14.261-.476.588-.837.971-.837 1.316 0 .141.1.268.335.268m19.067-.268c0-.345-.361-.728-.837-1.316-1.612-1.986-5.213-5.515-5.213-14.261 0-4.53.745-6.41.745-8.532 0-.964-.189-1.466-.691-1.466-1.139 0-3.069 4.778-3.069 10.51 0 11.994 7.566 15.333 8.733 15.333.233 0 .332-.127.332-.268" fill="#0982c6"/><path d="M515.6018 101.2622c0-1.566 1.236-2.834 2.761-2.834 1.529 0 2.766 1.268 2.766 2.834 0 1.568-1.237 2.835-2.766 2.835-1.525 0-2.761-1.267-2.761-2.835" fill="#f8971f"/><path d="M504.0146 105.7431c-1.444.653-2.525 1.962-2.701 3.231 1.072.706 2.765.76 4.211.107 1.511-.684 1.865-1.841 1.874-2.857-.769-.667-1.87-1.166-3.384-.481m4.143 7.633c-.929 1.428-1.146 3.236-.571 4.485 1.377.018 2.94-.916 3.868-2.343.971-1.495.62-2.745.038-3.669-1.083-.156-2.366.031-3.335 1.527m2.15-7.562c-1.146.971-1.789 2.444-1.619 3.647 1.159.364 2.718-.028 3.864-.998 1.2-1.019 1.219-2.163.962-3.093-.875-.404-2.007-.572-3.207.444m3.505 3.655c-.493 1.593-.215 3.357.662 4.384 1.303-.351 2.527-1.653 3.02-3.247.516-1.669-.149-2.753-.945-3.469-1.06.142-2.223.662-2.737 2.332m-6.036-11.637c-1.141-.222-2.345.105-2.991.79.34.879 1.337 1.632 2.481 1.854 1.195.232 1.898-.311 2.336-.917-.179-.728-.626-1.493-1.826-1.727m-3.016 3.38c-1.299.141-2.484.888-2.949 1.839.656.83 1.975 1.309 3.276 1.168 1.362-.148 1.937-.964 2.206-1.76-.435-.722-1.17-1.395-2.533-1.247m-.116 9.654c-1.02.865-1.592 2.173-1.441 3.243 1.031.325 2.416-.025 3.436-.887 1.065-.906 1.085-1.923.856-2.75-.779-.361-1.785-.509-2.851.394m6.951 6.861c-.412 1.328-.178 2.799.551 3.654 1.088-.294 2.109-1.379 2.52-2.705.43-1.392-.127-2.294-.789-2.894-.885.12-1.851.553-2.282 1.945m-17.08-34.46c0-.036.023-.065.069-.065.042 0 .119.035.202.065 4.082 1.464 10.108 3.259 18.566 3.808.01.076.061.453.061.743 0 .612-.073 1.251-.092 1.357-8.667-.795-14.648-3.308-18.578-5.723-.159-.099-.228-.122-.228-.185m34.815 22.957c.009 1.016.362 2.173 1.874 2.857 1.443.653 3.139.599 4.21-.107-.177-1.269-1.257-2.578-2.7-3.231-1.515-.685-2.614-.186-3.384.481m-4.094 5.625c-.581.924-.932 2.174.039 3.669.927 1.427 2.49 2.361 3.867 2.343.574-1.249.356-3.057-.57-4.485-.969-1.496-2.255-1.683-3.336-1.527m-2.024-6.479c-.255.93-.236 2.074.964 3.093 1.147.97 2.704 1.362 3.865.998.168-1.203-.475-2.676-1.621-3.647-1.198-1.016-2.333-.848-3.208-.444m-3.035 1.767c-.795.716-1.459 1.8-.944 3.469.491 1.594 1.719 2.896 3.021 3.247.877-1.027 1.155-2.791.662-4.384-.516-1.67-1.676-2.19-2.739-2.332m6.949-7.578c.439.606 1.139 1.149 2.337.917 1.144-.222 2.139-.975 2.48-1.854-.645-.685-1.849-1.012-2.993-.79-1.198.234-1.647.999-1.824 1.727m2.308 2.9c.27.796.845 1.612 2.207 1.76 1.301.141 2.618-.338 3.275-1.168-.465-.951-1.649-1.698-2.948-1.839-1.364-.148-2.101.525-2.534 1.247m-.202 8.013c-.229.827-.211 1.844.857 2.75 1.02.862 2.405 1.212 3.435.887.151-1.07-.422-2.378-1.441-3.243-1.066-.903-2.073-.755-2.851-.394m-6.382 5.31c-.663.6-1.218 1.502-.788 2.894.411 1.326 1.432 2.411 2.515 2.705.735-.855.965-2.326.556-3.654-.431-1.392-1.398-1.825-2.283-1.945m19.133-32.33c-3.928 2.415-9.91 4.928-18.577 5.723-.017-.106-.091-.745-.091-1.357 0-.29.05-.667.06-.743 8.457-.549 14.482-2.344 18.566-3.808.084-.03.163-.065.201-.065.048 0 .071.029.071.065 0 .063-.071.086-.23.185m-23.619 30.934c-1.123.523-2.229 1.494-2.229 3.513 0 1.928.91 3.782 2.229 4.614 1.319-.832 2.229-2.686 2.229-4.614 0-2.019-1.104-2.99-2.229-3.513" fill="#56b948"/><path d="M503.2232 72.8543c0-.987.813-1.787 1.819-1.787 1.005 0 1.819.8 1.819 1.787 0 .986-.814 1.785-1.819 1.785-1.006 0-1.819-.799-1.819-1.785m14.202-9.405c0-2.82-1.103-3.995-2.698-3.995-1.609 0-2.511 1.365-2.511 3.759 0 2.444 1.399 4.465 3.988 4.465.534 0 .907-.053 1.221-.129zm.155-4.626v-.916c0-2.514-1.548-3.49-3.469-3.49-1.727 0-3.001.519-3.403.66v-2.487c.328-.088 1.73-.529 3.731-.529 3.553 0 5.927 1.466 5.927 6.492v10.845c-.456.116-2.124.558-4.044.558-4.984 0-7.126-3.34-7.126-6.954 0-3.322 1.672-5.927 4.873-5.927 2.111 0 3.126 1.275 3.456 1.748zm-16.947 1.534c-.8-.375-2.08-.622-3.319-.622-3.379 0-5.867 2.417-5.867 6.099 0 3.659 2.471 6.105 5.867 6.105 1.683 0 2.881-.412 3.319-.62v2.632c-.738.274-1.937.551-3.631.551-5.244 0-8.768-3.625-8.768-8.668 0-4.766 3.243-8.663 8.768-8.663 1.62 0 2.84.257 3.631.553zm44.497 3.092c0-2.82-1.104-3.995-2.698-3.995-1.611 0-2.516 1.365-2.516 3.759 0 2.444 1.405 4.465 3.992 4.465.529 0 .904-.053 1.222-.129zm3.311-6.099c-.095.687-.371 2.5-.371 4.059v7.989c-.459.116-2.128.558-4.044.558-4.986 0-7.125-3.34-7.125-6.954 0-3.322 1.666-5.927 4.87-5.927 2.339 0 3.388 1.513 3.784 2.32h.077c.029-.383.135-1.685.169-2.045zm-41.927 12.291h-2.94v-12.291h2.94zm17.181-12.291v8.505c0 1.14-.104 3.327-.134 3.823h2.642l.124-1.729h.055c.307.484 1.296 2.007 3.601 2.007 2.783 0 4.329-2.045 4.329-4.594v-8.012h-2.938v7.431c0 1.565-.871 2.748-2.368 2.748-1.545 0-2.368-1.248-2.368-2.748v-7.431zm29.0613 2.1126c-.075.043-.198.063-.363.063h-.257v-.615h.271c.126 0 .223.01.287.036.117.047.176.135.176.267 0 .124-.038.207-.114.249m-.324.267c.211 0 .367-.02.465-.06.177-.075.264-.217.264-.431 0-.153-.056-.267-.166-.337-.059-.038-.141-.066-.246-.082.133-.021.229-.077.293-.168.061-.089.092-.177.092-.263v-.125c0-.039.001-.082.003-.126.004-.045.008-.076.016-.089l.009-.021h-.28c-.002.006-.002.012-.004.017-.001.005-.004.012-.004.019l-.006.054v.135c0 .196-.055.327-.161.39-.064.035-.176.056-.334.056h-.237v-.671h-.299v1.702zm-.914.087c-.259-.26-.387-.574-.387-.944 0-.371.128-.69.386-.951.259-.262.574-.394.945-.394.37 0 .686.132.946.394.257.261.387.58.387.951 0 .37-.13.684-.387.944-.263.263-.578.393-.946.393s-.683-.13-.944-.393m2.042-2.043c-.302-.304-.668-.456-1.098-.456-.43 0-.796.152-1.097.456-.3.303-.451.67-.451 1.101 0 .427.153.792.454 1.095.302.302.668.453 1.094.453.43 0 .796-.151 1.098-.453.304-.301.455-.667.455-1.095 0-.43-.151-.797-.455-1.101" fill="#0982c6"/></g></svg>